<svg xmlns="http://www.w3.org/2000/svg" width="720" height="420" viewBox="0 0 720 420" role="img" aria-label="TC Software logo">
  <defs>
    <linearGradient id="tcUniversalGradient" x1="0" y1="0" x2="1" y2="1">
      <stop offset="0%" stop-color="#F8FAFC"/>
      <stop offset="38%" stop-color="#93C5FD"/>
      <stop offset="72%" stop-color="#2563EB"/>
      <stop offset="100%" stop-color="#1D4ED8"/>
    </linearGradient>
    <linearGradient id="dividerGradient" x1="0" y1="0" x2="1" y2="0">
      <stop offset="0%" stop-color="#0EA5E9" stop-opacity="0"/>
      <stop offset="20%" stop-color="#0EA5E9" stop-opacity="0.85"/>
      <stop offset="80%" stop-color="#2563EB" stop-opacity="0.85"/>
      <stop offset="100%" stop-color="#2563EB" stop-opacity="0"/>
    </linearGradient>
    <filter id="softLift" x="-20%" y="-20%" width="140%" height="140%">
      <feDropShadow dx="0" dy="5" stdDeviation="5" flood-color="#020617" flood-opacity="0.22"/>
    </filter>
  </defs>

  <!-- Transparent, single-file mark designed for both light and dark backgrounds. -->
  <g filter="url(#softLift)">
    <g transform="translate(214.395 217.236) scale(1 -1)">
      <path d="M4.102 116.681 L47.578 116.681 L47.578 0.000 L90.234 0.000 L90.234 116.681 L133.711 116.681 L133.711 152.775 L4.102 152.775 L4.102 116.681 Z M216.169 -2.461 C255.216 -2.461 282.811 21.328 287.109 57.422 L244.158 57.422 C241.467 43.083 231.623 34.453 216.989 34.453 C196.153 34.453 184.997 49.645 184.997 76.289 C184.997 103.064 196.252 118.322 216.989 118.322 C231.623 118.322 241.598 109.627 244.158 95.156 L287.109 95.156 C282.909 131.250 255.216 155.236 216.169 155.236 C174.431 155.236 141.914 127.345 141.914 76.289 C141.914 25.627 174.431 -2.461 216.169 -2.461 Z" fill="none" stroke="#020617" stroke-width="10" stroke-linejoin="round" stroke-linecap="round"/>
      <path d="M4.102 116.681 L47.578 116.681 L47.578 0.000 L90.234 0.000 L90.234 116.681 L133.711 116.681 L133.711 152.775 L4.102 152.775 L4.102 116.681 Z M216.169 -2.461 C255.216 -2.461 282.811 21.328 287.109 57.422 L244.158 57.422 C241.467 43.083 231.623 34.453 216.989 34.453 C196.153 34.453 184.997 49.645 184.997 76.289 C184.997 103.064 196.252 118.322 216.989 118.322 C231.623 118.322 241.598 109.627 244.158 95.156 L287.109 95.156 C282.909 131.250 255.216 155.236 216.169 155.236 C174.431 155.236 141.914 127.345 141.914 76.289 C141.914 25.627 174.431 -2.461 216.169 -2.461 Z" fill="url(#tcUniversalGradient)"/>
    </g>

    <rect x="250" y="270" width="220" height="2.75" rx="1.375" fill="url(#dividerGradient)"/>

    <g transform="translate(237.860 317.655) scale(1 -1)">
      <path d="M10.190 -0.375 C15.470 -0.375 18.890 2.375 18.890 6.565 C18.890 9.890 16.735 11.905 12.065 13.015 L9.545 13.610 C6.345 14.375 5.095 15.345 5.095 17.030 C5.095 19.140 7.080 20.625 9.890 20.625 C12.830 20.625 14.735 18.985 14.905 16.315 L18.265 16.315 C18.125 20.860 14.955 23.655 9.940 23.655 C4.940 23.655 1.640 20.955 1.640 16.860 C1.640 13.640 3.705 11.690 8.405 10.580 L10.955 9.970 C14.190 9.205 15.420 8.170 15.420 6.375 C15.420 4.110 13.345 2.655 10.190 2.655 C6.705 2.655 4.655 4.470 4.640 7.545 L1.170 7.545 C1.170 2.625 4.610 -0.375 10.190 -0.375 Z M41.690 -0.375 C47.890 -0.375 52.410 4.500 52.410 11.625 C52.410 18.780 47.890 23.655 41.690 23.655 C35.485 23.655 30.985 18.780 30.985 11.625 C30.985 4.515 35.485 -0.375 41.690 -0.375 Z M41.690 2.795 C37.675 2.795 34.470 5.955 34.470 11.625 C34.470 17.330 37.675 20.485 41.690 20.485 C45.705 20.485 48.925 17.330 48.925 11.625 C48.925 5.955 45.705 2.795 41.690 2.795 Z M65.270 0.000 L68.740 0.000 L68.740 10.265 L79.535 10.265 L79.535 13.265 L68.740 13.265 L68.740 20.235 L80.425 20.235 L80.425 23.280 L65.270 23.280 L65.270 0.000 Z M91.050 20.235 L98.470 20.235 L98.470 0.000 L101.955 0.000 L101.955 20.235 L109.345 20.235 L109.345 23.280 L91.050 23.280 L91.050 20.235 Z M127.160 0.000 L131.175 0.000 L134.970 14.235 C135.360 15.670 135.690 17.170 136.015 18.765 C136.360 17.170 136.705 15.670 137.080 14.235 L140.910 0.000 L144.875 0.000 L151.220 23.280 L147.595 23.280 L144.175 9.735 C143.690 7.750 143.235 5.765 142.830 3.780 C142.410 5.765 141.940 7.750 141.440 9.735 L137.940 23.280 L134.140 23.280 L130.610 9.735 C130.095 7.735 129.640 5.720 129.220 3.705 C128.815 5.720 128.360 7.735 127.875 9.735 L124.455 23.280 L120.845 23.280 L127.160 0.000 Z M163.220 0.000 L166.910 0.000 L169.035 6.045 L178.425 6.045 L180.485 0.000 L184.250 0.000 L175.860 23.280 L171.675 23.280 L163.220 0.000 Z M170.080 9.000 L171.535 13.125 C172.175 15.045 172.845 17.095 173.785 20.110 C174.705 17.095 175.360 15.045 176.000 13.125 L177.410 9.000 L170.080 9.000 Z M198.125 0.000 L201.595 0.000 L201.595 8.815 L206.750 8.815 C206.795 8.815 206.860 8.815 206.905 8.815 L211.545 0.000 L215.455 0.000 L210.420 9.390 C213.330 10.440 215.095 12.780 215.095 16.030 C215.095 20.485 211.970 23.280 206.985 23.280 L198.125 23.280 L198.125 0.000 Z M201.595 11.765 L201.595 20.280 L206.830 20.280 C209.830 20.280 211.670 18.655 211.670 16.030 C211.670 13.405 209.845 11.765 206.845 11.765 L201.595 11.765 Z M227.455 0.000 L243.110 0.000 L243.110 3.045 L230.925 3.045 L230.925 10.360 L242.205 10.360 L242.205 13.375 L230.925 13.375 L230.925 20.235 L243.110 20.235 L243.110 23.280 L227.455 23.280 L227.455 0.000 Z" fill="none" stroke="#020617" stroke-width="4.25" stroke-linejoin="round" stroke-linecap="round"/>
      <path d="M10.190 -0.375 C15.470 -0.375 18.890 2.375 18.890 6.565 C18.890 9.890 16.735 11.905 12.065 13.015 L9.545 13.610 C6.345 14.375 5.095 15.345 5.095 17.030 C5.095 19.140 7.080 20.625 9.890 20.625 C12.830 20.625 14.735 18.985 14.905 16.315 L18.265 16.315 C18.125 20.860 14.955 23.655 9.940 23.655 C4.940 23.655 1.640 20.955 1.640 16.860 C1.640 13.640 3.705 11.690 8.405 10.580 L10.955 9.970 C14.190 9.205 15.420 8.170 15.420 6.375 C15.420 4.110 13.345 2.655 10.190 2.655 C6.705 2.655 4.655 4.470 4.640 7.545 L1.170 7.545 C1.170 2.625 4.610 -0.375 10.190 -0.375 Z M41.690 -0.375 C47.890 -0.375 52.410 4.500 52.410 11.625 C52.410 18.780 47.890 23.655 41.690 23.655 C35.485 23.655 30.985 18.780 30.985 11.625 C30.985 4.515 35.485 -0.375 41.690 -0.375 Z M41.690 2.795 C37.675 2.795 34.470 5.955 34.470 11.625 C34.470 17.330 37.675 20.485 41.690 20.485 C45.705 20.485 48.925 17.330 48.925 11.625 C48.925 5.955 45.705 2.795 41.690 2.795 Z M65.270 0.000 L68.740 0.000 L68.740 10.265 L79.535 10.265 L79.535 13.265 L68.740 13.265 L68.740 20.235 L80.425 20.235 L80.425 23.280 L65.270 23.280 L65.270 0.000 Z M91.050 20.235 L98.470 20.235 L98.470 0.000 L101.955 0.000 L101.955 20.235 L109.345 20.235 L109.345 23.280 L91.050 23.280 L91.050 20.235 Z M127.160 0.000 L131.175 0.000 L134.970 14.235 C135.360 15.670 135.690 17.170 136.015 18.765 C136.360 17.170 136.705 15.670 137.080 14.235 L140.910 0.000 L144.875 0.000 L151.220 23.280 L147.595 23.280 L144.175 9.735 C143.690 7.750 143.235 5.765 142.830 3.780 C142.410 5.765 141.940 7.750 141.440 9.735 L137.940 23.280 L134.140 23.280 L130.610 9.735 C130.095 7.735 129.640 5.720 129.220 3.705 C128.815 5.720 128.360 7.735 127.875 9.735 L124.455 23.280 L120.845 23.280 L127.160 0.000 Z M163.220 0.000 L166.910 0.000 L169.035 6.045 L178.425 6.045 L180.485 0.000 L184.250 0.000 L175.860 23.280 L171.675 23.280 L163.220 0.000 Z M170.080 9.000 L171.535 13.125 C172.175 15.045 172.845 17.095 173.785 20.110 C174.705 17.095 175.360 15.045 176.000 13.125 L177.410 9.000 L170.080 9.000 Z M198.125 0.000 L201.595 0.000 L201.595 8.815 L206.750 8.815 C206.795 8.815 206.860 8.815 206.905 8.815 L211.545 0.000 L215.455 0.000 L210.420 9.390 C213.330 10.440 215.095 12.780 215.095 16.030 C215.095 20.485 211.970 23.280 206.985 23.280 L198.125 23.280 L198.125 0.000 Z M201.595 11.765 L201.595 20.280 L206.830 20.280 C209.830 20.280 211.670 18.655 211.670 16.030 C211.670 13.405 209.845 11.765 206.845 11.765 L201.595 11.765 Z M227.455 0.000 L243.110 0.000 L243.110 3.045 L230.925 3.045 L230.925 10.360 L242.205 10.360 L242.205 13.375 L230.925 13.375 L230.925 20.235 L243.110 20.235 L243.110 23.280 L227.455 23.280 L227.455 0.000 Z" fill="#F8FAFC"/>
    </g>
  </g>
</svg>
